<?xml version="1.0" standalone="no"?>
<!DOCTYPE svg PUBLIC "-//W3C//DTD SVG 20010904//EN"
 "http://www.w3.org/TR/2001/REC-SVG-20010904/DTD/svg10.dtd">
<svg version="1.0" xmlns="http://www.w3.org/2000/svg"
 width="1021.000000pt" height="483.000000pt" viewBox="0 0 1021.000000 483.000000"
 preserveAspectRatio="xMidYMid meet">
<metadata>
Created by potrace 1.16, written by Peter Selinger 2001-2019
</metadata>
<g transform="translate(0.000000,483.000000) scale(0.100000,-0.100000)"
fill="#005477" stroke="none">
<path d="M2375 4804 c-16 -2 -82 -11 -145 -20 -718 -96 -1385 -509 -1773
-1099 -171 -260 -280 -538 -344 -875 -26 -137 -26 -593 0 -730 46 -244 107
-431 207 -635 297 -609 855 -1085 1530 -1303 131 -42 324 -88 406 -97 43 -5
46 -4 24 6 -361 168 -580 315 -794 534 -452 459 -682 1096 -615 1703 109 996
906 1774 1964 1919 153 21 456 20 615 -1 275 -37 523 -112 766 -231 340 -167
619 -398 851 -704 2 -2 6 -2 9 1 8 9 -114 242 -186 353 -178 275 -422 524
-700 714 -333 228 -712 376 -1145 447 -95 15 -591 29 -670 18z"/>
<path d="M6770 2914 c-201 -43 -330 -179 -330 -347 0 -85 15 -131 58 -179 54
-60 123 -101 275 -162 190 -77 252 -117 288 -188 62 -121 -29 -262 -179 -275
-179 -16 -272 130 -152 241 46 42 50 67 16 101 -52 52 -172 57 -252 10 -83
-49 -124 -173 -94 -283 25 -94 140 -176 290 -208 100 -21 282 -14 360 14 140
49 230 123 275 224 39 87 46 210 16 289 -43 114 -122 176 -326 259 -209 84
-275 122 -301 172 -34 66 3 160 78 194 51 23 157 26 206 5 44 -19 66 -62 58
-117 -7 -53 8 -70 69 -79 57 -9 122 20 150 67 25 43 25 114 -1 159 -56 96
-303 147 -504 103z"/>
<path d="M1311 2905 c-88 -16 -161 -42 -161 -57 0 -6 9 -25 19 -42 31 -50 41
-115 51 -335 11 -231 -2 -691 -21 -784 -6 -31 -9 -61 -5 -65 15 -14 132 -4
202 17 103 30 108 39 95 148 -6 48 -14 156 -18 239 -6 142 -5 154 16 196 11
24 37 63 57 86 50 59 74 56 140 -12 74 -77 84 -113 95 -376 5 -118 13 -228 17
-245 12 -44 45 -57 122 -50 112 10 210 44 210 72 0 8 -11 28 -24 43 -30 36
-63 158 -81 303 -8 61 -22 132 -32 157 -23 63 -74 140 -114 174 -39 33 -149
86 -179 86 -11 0 -20 4 -20 8 0 14 240 244 324 311 43 34 96 71 117 82 41 20
50 43 23 53 -32 12 -204 6 -239 -9 -20 -8 -61 -38 -91 -67 -52 -48 -291 -327
-318 -370 -6 -10 -14 -18 -18 -18 -12 0 -10 167 4 317 6 73 8 136 5 139 -13
13 -104 13 -176 -1z"/>
<path d="M3859 2900 c-284 -4 -380 -8 -391 -18 -24 -20 -40 -97 -46 -224 l-5
-118 29 0 c22 0 35 9 53 36 66 97 204 177 337 195 72 10 154 7 154 -7 0 -8
-129 -242 -170 -308 -20 -34 -121 -189 -224 -345 -183 -279 -256 -405 -256
-442 0 -10 9 -23 19 -28 12 -7 171 -9 457 -6 l439 4 19 23 c90 111 136 350 85
454 -50 103 -208 113 -306 18 -35 -33 -43 -47 -43 -77 0 -34 2 -36 38 -42 103
-18 132 -42 132 -109 0 -86 -116 -141 -295 -141 -110 0 -145 12 -145 48 0 38
115 230 340 567 130 195 245 383 274 448 28 62 16 77 -60 77 -32 1 -228 -1
-435 -5z"/>
<path d="M8381 2874 c-72 -19 -145 -57 -149 -77 -2 -9 12 -32 31 -51 55 -54
60 -96 61 -456 0 -277 -10 -464 -30 -577 -11 -58 61 -100 186 -110 78 -6 85 2
69 68 -11 42 -14 181 -14 620 0 463 -3 569 -14 583 -17 20 -66 20 -140 0z"/>
<path d="M3098 2773 c-54 -6 -78 -40 -78 -114 0 -31 3 -64 6 -73 7 -17 34 -21
49 -7 6 5 42 11 81 13 92 5 104 15 104 89 0 50 -3 61 -22 73 -26 16 -87 24
-140 19z"/>
<path d="M5266 2461 c-3 -5 -1 -93 6 -196 9 -149 9 -223 -2 -368 -7 -100 -14
-204 -14 -232 l-1 -50 65 1 c75 1 150 29 174 66 13 20 14 37 6 108 -5 47 -10
174 -10 282 l0 197 30 35 c35 40 81 52 140 36 87 -23 101 -111 50 -320 -38
-154 -46 -223 -31 -277 24 -87 85 -128 209 -139 50 -4 72 -2 86 8 18 14 18 16
-7 59 -43 73 -50 152 -32 371 19 229 13 278 -42 339 -49 55 -121 79 -232 79
-90 0 -160 -17 -192 -46 -15 -13 -17 -13 -22 1 -12 29 -70 55 -124 55 -28 0
-54 -4 -57 -9z"/>
<path d="M4762 2444 c-109 -29 -171 -83 -227 -198 -110 -225 -42 -529 135
-605 102 -44 279 -33 361 22 76 51 123 151 105 222 -12 45 -34 42 -82 -13 -54
-62 -111 -87 -185 -80 -71 7 -129 55 -144 119 -6 26 -5 26 70 38 235 38 357
139 359 297 1 50 -4 68 -27 102 -15 23 -44 53 -65 67 -66 44 -198 57 -300 29z
m151 -107 c41 -30 37 -117 -9 -186 -30 -45 -107 -91 -161 -94 l-38 -2 1 70 c2
123 72 225 152 225 21 0 46 -6 55 -13z"/>
<path d="M8753 2450 c-62 -13 -142 -50 -148 -70 -4 -11 6 -29 28 -51 41 -41
83 -145 143 -359 49 -172 98 -313 120 -347 9 -14 25 -23 40 -23 38 0 125 62
200 143 173 187 254 360 254 544 0 93 -16 145 -50 163 -44 24 -204 -14 -264
-61 -32 -25 -34 -55 -3 -64 80 -22 117 -79 117 -179 0 -82 -44 -204 -94 -262
-31 -35 -36 -37 -49 -24 -20 21 -50 117 -97 315 -72 302 -70 300 -197 275z"/>
<path d="M9722 2444 c-109 -29 -171 -83 -227 -198 -110 -225 -42 -529 135
-605 102 -44 279 -33 361 22 76 51 123 151 105 222 -12 45 -34 42 -82 -13 -54
-62 -111 -87 -185 -80 -71 7 -129 55 -144 119 -6 26 -5 26 70 38 235 38 357
139 359 297 1 50 -4 68 -27 102 -15 23 -44 53 -65 67 -66 44 -198 57 -300 29z
m151 -107 c41 -30 37 -117 -9 -186 -30 -45 -107 -91 -161 -94 l-38 -2 1 70 c2
123 72 225 152 225 21 0 46 -6 55 -13z"/>
<path d="M2377 2439 c-121 -29 -193 -114 -166 -197 14 -43 58 -65 130 -65 83
1 100 13 93 66 -6 40 -4 46 26 70 25 21 42 27 81 27 70 0 99 -29 99 -99 0 -62
-2 -63 -150 -96 -132 -29 -209 -64 -272 -123 -61 -57 -82 -110 -76 -200 5 -88
36 -139 105 -173 99 -48 264 -23 309 47 23 34 24 98 3 120 -15 14 -19 14 -47
0 -43 -22 -76 -20 -109 8 -23 20 -28 32 -27 67 1 36 8 48 41 79 44 41 135 80
188 80 l35 0 0 -189 0 -190 26 -20 c49 -39 235 -37 242 2 2 10 -3 26 -11 35
-34 40 -40 86 -46 364 -6 259 -7 278 -27 304 -32 44 -67 65 -130 80 -65 15
-257 17 -317 3z"/>
<path d="M3101 2434 c-91 -24 -141 -50 -141 -73 0 -11 8 -25 19 -30 10 -6 27
-30 37 -53 17 -39 18 -64 15 -253 -3 -115 -5 -246 -5 -289 l-1 -80 35 -20 c28
-17 52 -21 125 -21 104 0 97 -12 75 125 -9 55 -10 144 -4 330 4 140 8 282 8
315 l1 60 -55 2 c-30 1 -79 -5 -109 -13z"/>
<path d="M7755 2433 c-112 -24 -205 -71 -205 -104 0 -14 16 -17 108 -21 83 -3
118 -9 157 -26 111 -51 165 -142 165 -281 0 -141 -42 -232 -123 -265 -47 -20
-47 -20 -94 0 -73 30 -107 93 -120 215 -8 78 19 196 58 248 16 23 29 45 29 50
0 35 -115 9 -182 -42 -101 -77 -143 -256 -94 -399 47 -135 180 -207 366 -195
108 6 184 35 249 93 65 58 99 118 118 207 29 140 0 260 -86 346 -62 63 -62 62
47 113 113 52 59 77 -168 77 -99 -1 -180 -6 -225 -16z"/>
<path d="M6466 1264 c-167 -61 -210 -275 -78 -384 49 -41 113 -60 196 -60 87
0 154 28 208 87 103 115 51 306 -97 357 -59 20 -175 20 -229 0z m143 -15 c63
-14 100 -44 127 -103 28 -59 32 -148 10 -199 -48 -112 -197 -136 -287 -46 -38
38 -69 113 -69 168 0 98 68 174 170 190 3 0 25 -4 49 -10z"/>
<path d="M1730 1262 c0 -4 14 -13 30 -19 l30 -11 0 -179 c0 -189 -3 -203 -47
-203 -13 0 -23 -4 -23 -10 0 -6 68 -11 180 -11 99 -1 185 -2 192 -3 7 -1 20
20 30 46 23 63 6 73 -37 22 l-33 -39 -82 0 c-102 0 -110 8 -110 112 l0 73 65
0 c60 0 66 -2 77 -25 21 -47 34 -29 34 45 -1 48 -5 70 -13 70 -7 0 -15 -11
-19 -25 -7 -27 -44 -39 -105 -33 l-34 3 0 85 0 85 74 -1 c71 0 76 -2 101 -32
36 -44 48 -41 41 11 l-6 42 -172 3 c-95 1 -173 -1 -173 -6z"/>
<path d="M5608 1244 c-46 -24 -54 -91 -16 -131 23 -24 23 -25 3 -35 -40 -23
-84 -75 -90 -110 -9 -47 15 -102 57 -128 27 -17 46 -20 100 -18 56 3 75 9 111
35 l44 30 31 -34 c31 -35 31 -35 107 -31 61 3 79 8 97 25 25 26 19 40 -10 24
-12 -6 -39 -11 -61 -11 -35 0 -47 6 -81 41 l-40 42 27 36 c15 20 42 56 60 80
38 51 59 68 91 73 25 3 31 24 7 22 -8 0 -49 -1 -90 -2 -42 -1 -75 -6 -75 -12
0 -5 9 -10 19 -10 11 0 22 -4 25 -8 4 -8 -31 -72 -66 -121 l-16 -23 -38 41
c-20 23 -50 49 -65 58 l-28 17 31 26 c89 75 -27 183 -134 124z m136 -257 l59
-61 -27 -22 c-32 -28 -91 -46 -125 -37 -46 10 -81 52 -81 96 0 31 7 46 35 74
31 31 37 33 57 22 13 -7 50 -39 82 -72z"/>
<path d="M8200 1115 c-13 -13 -31 -27 -42 -31 -24 -7 -23 -24 2 -24 19 0 20
-7 20 -98 0 -122 11 -142 75 -142 50 0 98 18 92 34 -3 6 -11 9 -18 7 -8 -2
-21 -5 -29 -8 -8 -2 -23 2 -33 9 -14 11 -19 33 -24 106 l-6 92 57 0 c42 0 56
4 56 14 0 11 -15 16 -52 18 -46 3 -53 6 -56 26 -4 28 -13 28 -42 -3z"/>
<path d="M2963 1101 c-44 -15 -55 -34 -28 -45 12 -4 15 -25 15 -100 0 -94 -1
-96 -25 -102 -50 -12 -23 -24 55 -24 81 0 98 7 58 25 -22 9 -23 17 -28 136
l-5 126 -42 -16z"/>
<path d="M4413 1101 c-44 -15 -55 -34 -28 -45 12 -4 15 -25 15 -100 0 -94 -1
-96 -25 -102 -50 -12 -23 -24 55 -24 81 0 98 7 58 25 -22 9 -23 17 -28 136
l-5 126 -42 -16z"/>
<path d="M6942 1100 c-46 -25 -47 -27 -28 -48 14 -17 16 -42 14 -193 -3 -172
-3 -174 -25 -177 -13 -2 -23 -8 -23 -13 0 -5 41 -9 90 -9 53 0 90 4 90 10 0 6
-11 10 -25 10 -32 0 -47 29 -43 88 l3 47 68 6 c71 6 104 23 140 70 44 60 26
164 -36 195 -30 16 -106 15 -154 -1 -19 -6 -23 -4 -23 14 0 25 -4 25 -48 1z
m169 -50 c24 -13 49 -61 49 -95 0 -34 -25 -82 -49 -95 -28 -15 -73 -12 -99 6
-20 13 -22 24 -22 94 0 65 3 81 18 89 22 13 78 14 103 1z"/>
<path d="M8443 1101 c-44 -15 -55 -34 -28 -45 12 -4 15 -25 15 -100 0 -94 -1
-96 -25 -102 -50 -12 -23 -24 55 -24 81 0 98 7 58 25 -22 9 -23 17 -28 136
l-5 126 -42 -16z"/>
<path d="M2213 1094 c-36 -16 -40 -25 -18 -44 11 -9 15 -34 15 -101 0 -86 -1
-89 -25 -95 -50 -12 -23 -24 55 -24 81 0 98 7 58 25 -21 9 -23 18 -26 89 -3
94 10 116 68 116 57 0 70 -21 70 -119 0 -74 -2 -83 -20 -88 -44 -12 -16 -23
55 -23 43 0 75 4 75 10 0 6 -7 10 -15 10 -24 0 -35 43 -35 131 0 66 -3 82 -20
99 -24 24 -94 27 -145 6 -33 -14 -35 -14 -35 5 0 22 -12 23 -57 3z"/>
<path d="M3153 1094 c-36 -16 -40 -25 -18 -44 11 -9 15 -34 15 -101 0 -86 -1
-89 -25 -95 -50 -12 -23 -24 55 -24 81 0 98 7 58 25 -21 9 -23 18 -26 89 -3
94 10 116 68 116 57 0 70 -21 70 -119 0 -74 -2 -83 -20 -88 -44 -12 -16 -23
55 -23 43 0 75 4 75 10 0 6 -7 10 -15 10 -24 0 -35 43 -35 131 0 66 -3 82 -20
99 -24 24 -94 27 -145 6 -33 -14 -35 -14 -35 5 0 22 -12 23 -57 3z"/>
<path d="M4153 1094 c-36 -16 -40 -25 -18 -44 11 -9 15 -34 15 -101 0 -86 -1
-89 -25 -95 -51 -13 -23 -24 60 -24 50 0 85 4 85 10 0 6 -8 10 -18 10 -33 0
-42 21 -42 101 0 89 4 94 70 94 41 0 45 2 45 25 0 20 -6 26 -27 28 -15 2 -40
-4 -57 -13 -30 -15 -31 -15 -31 5 0 23 -12 24 -57 4z"/>
<path d="M4603 1094 c-36 -16 -40 -25 -18 -44 11 -9 15 -34 15 -101 0 -86 -1
-89 -25 -95 -50 -12 -23 -24 55 -24 81 0 98 7 58 25 -21 9 -23 18 -26 89 -3
94 10 116 68 116 57 0 70 -21 70 -119 0 -74 -2 -83 -20 -88 -44 -12 -16 -23
55 -23 43 0 75 4 75 10 0 6 -7 10 -15 10 -24 0 -35 43 -35 131 0 66 -3 82 -20
99 -24 24 -94 27 -145 6 -33 -14 -35 -14 -35 5 0 22 -12 23 -57 3z"/>
<path d="M7633 1094 c-36 -16 -40 -25 -18 -44 11 -9 15 -34 15 -101 0 -86 -1
-89 -25 -95 -51 -13 -23 -24 60 -24 50 0 85 4 85 10 0 6 -8 10 -18 10 -33 0
-42 21 -42 101 0 89 4 94 70 94 41 0 45 2 45 25 0 20 -6 26 -27 28 -15 2 -40
-4 -57 -13 -30 -15 -31 -15 -31 5 0 23 -12 24 -57 4z"/>
<path d="M9003 1094 c-36 -16 -40 -25 -18 -44 11 -9 15 -34 15 -101 0 -86 -1
-89 -25 -95 -50 -12 -23 -24 55 -24 81 0 98 7 58 25 -21 9 -23 18 -26 89 -3
94 10 116 68 116 57 0 70 -21 70 -119 0 -74 -2 -83 -20 -88 -44 -12 -16 -23
55 -23 43 0 75 4 75 10 0 6 -7 10 -15 10 -24 0 -35 43 -35 131 0 66 -3 82 -20
99 -24 24 -94 27 -145 6 -33 -14 -35 -14 -35 5 0 22 -12 23 -57 3z"/>
<path d="M2625 1089 c-59 -34 -72 -98 -30 -147 l25 -30 -25 -20 c-32 -25 -32
-47 1 -68 l25 -17 -30 -31 c-67 -69 -21 -126 101 -126 79 0 140 27 168 72 26
44 25 74 -5 103 -22 23 -32 25 -113 25 -70 0 -92 4 -103 16 -11 14 -10 18 6
30 10 8 36 14 57 14 73 0 118 42 118 110 0 27 3 30 30 30 19 0 30 5 30 14 0
14 -29 20 -170 31 -41 4 -73 1 -85 -6z m185 -309 c26 -26 25 -36 -4 -65 -70
-70 -222 -17 -172 60 15 23 23 25 86 25 57 0 74 -4 90 -20z"/>
<path d="M3573 1080 c-90 -54 -96 -188 -11 -240 58 -35 158 -23 198 25 20 25
3 30 -33 10 -67 -35 -157 13 -160 87 l-2 33 103 3 c95 3 102 4 102 23 0 11
-13 34 -29 50 -25 25 -37 29 -83 29 -35 0 -64 -7 -85 -20z"/>
<path d="M3873 1080 c-90 -54 -96 -188 -11 -240 58 -35 158 -23 198 25 20 25
3 30 -33 10 -67 -35 -157 13 -160 87 l-2 33 103 3 c95 3 102 4 102 23 0 11
-13 34 -29 50 -25 25 -37 29 -83 29 -35 0 -64 -7 -85 -20z"/>
<path d="M5015 1089 c-59 -34 -72 -98 -30 -147 l25 -30 -25 -20 c-32 -25 -32
-47 1 -68 l25 -17 -30 -31 c-67 -69 -21 -126 101 -126 79 0 140 27 168 72 26
44 25 74 -5 103 -22 23 -32 25 -113 25 -70 0 -92 4 -103 16 -11 14 -10 18 6
30 10 8 36 14 57 14 73 0 118 42 118 110 0 27 3 30 30 30 19 0 30 5 30 14 0
14 -29 20 -170 31 -41 4 -73 1 -85 -6z m185 -309 c26 -26 25 -36 -4 -65 -70
-70 -222 -17 -172 60 15 23 23 25 86 25 57 0 74 -4 90 -20z"/>
<path d="M7353 1080 c-90 -54 -96 -188 -11 -240 58 -35 158 -23 198 25 20 25
3 30 -33 10 -67 -35 -157 13 -160 87 l-2 33 103 3 c95 3 102 4 102 23 0 11
-13 34 -29 50 -25 25 -37 29 -83 29 -35 0 -64 -7 -85 -20z"/>
<path d="M7902 1079 c-42 -21 -68 -51 -57 -68 9 -16 55 4 68 29 18 36 61 39
82 6 26 -40 16 -68 -30 -84 -82 -29 -97 -35 -111 -49 -36 -36 2 -93 61 -93 20
0 49 7 64 15 26 13 30 13 41 0 15 -18 81 -20 98 -3 17 17 15 31 -3 24 -38 -14
-45 3 -45 105 0 86 -3 102 -20 119 -27 27 -92 26 -148 -1z"/>
<path d="M8649 1077 c-47 -31 -71 -81 -66 -135 8 -74 70 -122 157 -122 100 0
160 53 160 140 0 88 -60 140 -163 140 -40 0 -63 -6 -88 -23z m140 -20 c8 -7
20 -26 28 -44 39 -95 -17 -189 -97 -162 -73 26 -88 158 -23 209 28 22 63 21
92 -3z"/>
<path d="M9385 1075 c-44 -43 -29 -92 36 -125 76 -39 94 -76 48 -100 -25 -14
-67 4 -81 35 -17 37 -38 32 -38 -10 0 -43 20 -55 93 -55 68 0 107 26 107 71 0
45 -14 64 -75 98 -59 33 -71 62 -36 81 24 12 69 -2 77 -25 8 -20 34 -19 34 1
0 41 -19 54 -81 54 -50 0 -64 -4 -84 -25z"/>
</g>
</svg>
