<?xml version="1.0" standalone="no"?>
<!DOCTYPE svg PUBLIC "-//W3C//DTD SVG 20010904//EN"
 "http://www.w3.org/TR/2001/REC-SVG-20010904/DTD/svg10.dtd">
<svg version="1.0" xmlns="http://www.w3.org/2000/svg"
 width="166.000000pt" height="92.000000pt" viewBox="0 0 166.000000 92.000000"
 preserveAspectRatio="xMidYMid meet">
<metadata>
Created by potrace 1.16, written by Peter Selinger 2001-2019
</metadata>
<g transform="translate(0.000000,92.000000) scale(0.100000,-0.100000)"
fill="#000000" stroke="none">
<path d="M470 711 c0 -6 9 -11 19 -11 11 0 33 -11 48 -24 26 -23 27 -26 13
-49 -30 -49 -273 -319 -311 -345 -21 -15 -38 -30 -39 -34 0 -5 36 -8 80 -8 79
0 91 5 69 27 -18 18 -3 54 46 111 l47 52 78 0 78 0 8 -67 c6 -64 6 -68 -20
-89 -14 -13 -26 -26 -26 -29 0 -3 26 -5 58 -5 l58 0 -31 230 c-17 126 -33 231
-36 234 -2 2 -34 7 -71 11 -48 5 -68 4 -68 -4z"/>
<path d="M1020 712 c0 -5 7 -15 15 -22 23 -19 19 -44 -33 -200 -59 -176 -74
-205 -115 -230 l-32 -20 60 0 60 0 77 232 c43 127 77 233 75 234 -10 7 -107
13 -107 6z"/>
<path d="M1255 712 l-110 -3 -78 -227 c-42 -125 -77 -230 -77 -234 0 -5 62 -8
139 -8 l138 0 37 55 c41 63 33 70 -26 23 -37 -31 -46 -33 -129 -36 -49 -2 -89
0 -88 5 0 4 13 46 28 93 l27 85 68 3 c75 3 96 -7 96 -45 0 -45 22 -18 46 57
28 88 27 80 13 80 -7 0 -22 -11 -35 -25 -20 -22 -31 -25 -95 -25 l-71 0 6 25
c4 14 16 50 27 80 l20 55 78 0 c79 0 101 -9 101 -42 0 -35 29 -18 40 23 6 22
14 47 17 55 4 11 -3 13 -28 12 -19 -1 -83 -4 -144 -6z"/>
<path d="M635 668 c4 -24 19 -128 33 -233 l27 -190 53 -3 c54 -3 64 5 35 29
-9 8 -22 28 -29 44 -10 26 -38 190 -59 348 -6 44 -8 47 -36 47 -30 0 -30 -1
-24 -42z"/>
<path d="M182 143 c3 -17 40 -18 581 -21 572 -2 577 -2 577 18 0 20 -6 20
-581 20 -547 0 -580 -1 -577 -17z"/>
</g>
</svg>
